<?xml version="1.0" encoding="UTF-8" standalone="no"?>
<svg
   xmlns:dc="http://purl.org/dc/elements/1.1/"
   xmlns:cc="http://creativecommons.org/ns#"
   xmlns:rdf="http://www.w3.org/1999/02/22-rdf-syntax-ns#"
   xmlns:svg="http://www.w3.org/2000/svg"
   xmlns="http://www.w3.org/2000/svg"
   viewBox="0 0 666.66669 666.66669"
   height="666.66669"
   width="666.66669"
   xml:space="preserve"
   id="svg2"
   version="1.1"><metadata
     id="metadata8"><rdf:RDF><cc:Work
         rdf:about=""><dc:format>image/svg+xml</dc:format><dc:type
           rdf:resource="http://purl.org/dc/dcmitype/StillImage" /></cc:Work></rdf:RDF></metadata><defs
     id="defs6" /><g
     transform="matrix(1.3333333,0,0,-1.3333333,0,666.66667)"
     id="g10"><g
       transform="scale(0.1)"
       id="g12"><path
         id="path14"
         style="fill:#231f20;fill-opacity:1;fill-rule:nonzero;stroke:none"
         d="m 3079.78,3146.89 c 10.44,111.03 13.24,235.63 -105.29,288.92 -103.61,46.58 -253.66,34.37 -364.02,26.91 95.61,-39.03 200.64,-53.82 295.06,-94 91.97,-39.14 75.51,-125.7 66.14,-209.81 -23.02,-206.68 -36.53,-418.87 -14.89,-626.25 66.63,197.53 100.2,407.55 123,614.23 z M 3658.75,2133.7 c -119.65,-160.1 -228.59,-351.36 -268.53,-549.2 194,170.45 355.71,450.84 407.23,703.8 -52.1,-45.94 -96.78,-99.42 -138.7,-154.6 z m -1777.64,334.11 c -201.67,260.42 -464.49,488.47 -768.4,620.52 243.12,-213.51 473.34,-438.93 671.62,-695.41 198.27,-256.48 358.69,-535.83 504.62,-824.64 -51.26,327.31 -206.13,639.22 -407.84,899.53 z m 912.66,-1145.57 c -98.53,-161.49 -269.19,-244.54 -454.4,-256.87 262.94,-127.241 598.82,147.3 527.49,430.3 -16.62,-60.7 -40.14,-119.68 -73.09,-173.43 z M 4268.6,3572.6 c -18.36,-225.78 -44.85,-450.74 -51.33,-677.26 -7.18,-250.68 -24.48,-504.64 -60.51,-752.92 -17.18,-118.44 -41.84,-239.66 -99.15,-345.94 -55.35,-102.64 -141.2,-185.43 -231.13,-257.97 -130.22,-105.06 -273.31,-197.14 -414.6,-286.43 57.38,74.77 104.51,159.33 129.66,250.55 -142.13,-166 -305.13,-370.8 -506.5,-466.56 70.82,122.81 70.41,272.52 83.97,409.81 15.08,152.65 14.4,305.87 21.03,458.94 8.01,185.07 44.79,367.22 78.86,548.87 10.83,57.76 21.97,110.04 38.5,161.5 43.36,135.04 57.01,277.62 84.21,416.29 26.58,135.55 64.03,273.2 144,387.91 49.07,70.39 88.99,89.48 162.67,121.66 96.7,42.24 191.02,84.87 295.51,103.42 68.35,12.13 140.35,24.16 209.99,23.73 27.97,-0.17 57.59,-2.2 82.78,-15.57 38.53,-20.46 35.06,-37.55 32.04,-80.03 z M 3009.59,1463.45 c -26.14,-203.8 -45.37,-481.368 -295.18,-530.27 -173.09,-33.879 -364.66,-24.93 -538.43,0.519 -256.96,37.641 -509.47,100.041 -765.86,141.351 -275.91,44.45 -675.858,71.45 -678.538,433.87 -0.918,124.05 15.781,250.01 24.481,373.93 10.878,154.82 13.98,310.03 12.527,465.21 -0.703,74.85 -2.375,149.56 -6.547,224.3 -6.559,117.3 -29.586,237.78 -10.867,354.6 16.066,100.25 48.859,199.33 75.812,297.16 32.637,118.46 80.254,234.71 169.418,322.26 -156.82,-72.01 -227.906,-251.49 -271.332,-406.44 -2.105,145.94 -2.957,287.38 83,413.11 117.285,171.54 320.946,173.96 508.696,156.88 205.09,-18.65 417.49,-27.75 619.98,-63.55 216.97,-38.37 443.04,-24.07 662.32,-39.12 161.41,-11.09 350.79,-22.21 491.6,-111.24 89.6,-56.65 108.14,-148.63 107.19,-251.47 -1.97,-212.48 -60.3,-436.16 -94.41,-646.38 -37.56,-231.46 -80.81,-464.84 -78.44,-700.18 0.69,-67.63 3.27,-135.28 5.13,-202.89 2.17,-79.32 -10.35,-152.6 -20.55,-231.65 z M 1059.5,3859.87 c 122.07,48.81 255.16,74.1 382.47,106.2 219.35,55.31 440.64,98.06 664.82,128.57 223.96,30.49 441.75,72.49 668.15,48.38 198.45,-21.13 396.42,-44.36 594.26,-70.75 -140.74,-43.91 -277.61,-100.54 -413.5,-157.42 143.61,-30.82 295.65,3.29 433.96,43.32 70.54,20.42 140.17,43.84 210.04,66.42 44.68,14.45 86.61,3.73 132.22,-3.05 161.88,-24.07 440.33,-17.25 512.22,-192.23 -165.94,68.79 -353.68,-18.72 -506.27,-86.03 -95.24,-42.01 -181.39,-74.76 -286.01,-88.67 -116.15,-15.44 -230.78,-1.55 -345.56,17.92 -117.72,19.97 -231.61,51.76 -350.96,63.33 -126.28,12.25 -253.35,14.14 -380.13,14.1 -177.27,-0.08 -348.63,29.28 -524.62,51.08 -139.13,17.24 -278.45,33.1 -417.95,46.96 -134.84,13.41 -272.18,27.46 -405.97,-1.91 10.83,4.85 21.78,9.44 32.83,13.78 z m 3429.05,26.22 c -52.44,270.6 -356.24,303.81 -585.28,319.64 -182.38,12.61 -364.94,16.74 -547.56,24.27 -192.24,7.94 -380.84,34.21 -569.89,68.01 -107.43,19.2 -214.08,42.03 -323.93,35.6 -140.3,-8.22 -278.44,-55.41 -413.67,-90.76 -279.22,-73 -562.59,-116.04 -846.8,-163.93 -261.51,-44.06 -524.287,-128.57 -629.635,-397.36 -76.18,-194.36 -64.047,-421.99 -41.039,-625.83 30.504,-270.24 76.094,-534.65 62.695,-807.89 -8.535,-174.12 -39.211,-344.16 -68.636,-515.49 -45.457,-264.67 -51.957,-526.94 190.293,-698.92 234.293,-166.34 541.862,-154.168 816.342,-188.321 176.04,-21.898 345.61,-64.429 516.01,-111.839 224.16,-62.391 450.68,-87.122 681.87,-51.75 261.95,40.082 493.81,156.46 708.65,307.531 113.82,80.029 227.44,160.279 346.4,232.569 195.14,118.58 414.87,221.38 525.49,433.08 129.51,247.85 84.14,532.09 80.6,800.42 -3.16,239.41 -8.55,485.56 29.2,722.75 18.68,117.34 40.11,234.23 59.43,351.46 19.38,117.56 30.7,238.6 9.46,356.76 z M 3729.51,2729.5 c -185.96,-222.35 -338,-508.3 -371.01,-799.58 116.55,160.1 213.67,335.29 313.06,506.31 95.06,163.56 194.48,327.05 272.99,499.41 -80.56,-58.71 -150.78,-130.24 -215.04,-206.14 z M 2431.55,1838.64 c 26.77,-61.45 53.62,-122.94 87.02,-181.15 57.32,253.53 -73.43,583.74 -288.81,730.17 44.87,-188.04 126.28,-371.65 201.79,-549.02 z m -374.02,2055.17 c 46.02,-82.16 223.61,-60.14 295.03,-38.31 -66.14,7.28 -180.41,14.86 -232.7,63.6 65.1,71.57 219.62,84.59 307.54,99.45 124.73,21.08 253.12,34.64 373.31,75.99 -171.37,8 -348.1,18.2 -516.66,-20.99 -59.23,-13.77 -287.6,-81.97 -226.52,-179.74 z m 1505.7,-19.04 c 103.2,3.56 212.62,11.48 311.7,42.64 -124.58,60.3 -308.39,43.59 -419.78,-39.49 35.87,-4.26 72.04,-4.13 108.08,-3.15 z M 1661.71,2126.26 c -127.41,163.89 -292.01,312.47 -484,395.8 126.72,-158.96 262.68,-310.13 387.34,-470.85 124.66,-160.71 237.41,-329.94 360.23,-491.91 -32.89,206.64 -136.13,403.18 -263.57,566.96 z M 1273.78,1252.2 c -70.03,15.09 -143.5,25.4 -211.7,47.28 -135.717,43.54 -210.115,186.81 -172.9,324.99 -67.16,-100.66 -39.051,-245.69 43.515,-328.66 69.585,-69.91 171.165,-88.03 263.365,-109.47 235.65,-54.78 475.99,-102.2 717.73,-118.38 -206.68,80.45 -423.78,136.25 -640.01,184.24" /></g></g></svg>