<?xml version="1.0" encoding="UTF-8" standalone="no"?>
<svg xmlns:dc="http://purl.org/dc/elements/1.1/" xmlns:cc="http://creativecommons.org/ns#" xmlns:rdf="http://www.w3.org/1999/02/22-rdf-syntax-ns#" xmlns:svg="http://www.w3.org/2000/svg" xmlns="http://www.w3.org/2000/svg" viewBox="411 374 2790 2790" height="2790" width="2790" xml:space="preserve" id="svg2" version="1.1"><metadata id="metadata8"><rdf:RDF><cc:Work rdf:about=""><dc:format>image/svg+xml</dc:format><dc:type rdf:resource="http://purl.org/dc/dcmitype/StillImage"/></cc:Work></rdf:RDF></metadata><defs id="defs6"/><g transform="matrix(1.3333333,0,0,-1.3333333,0,3728)" id="g10"><g transform="scale(0.1)" id="g12"><g transform="scale(1.71534)" id="g14"><path id="path16" style="fill:#f6f6f6;fill-opacity:0;fill-rule:nonzero;stroke:none" d="M 16300,0 H 0 V 16300 H 16300 V 0"/></g><path id="path18" style="fill:#000000;fill-opacity:1;fill-rule:nonzero;stroke:none" d="m 14007.2,13924.6 -54.5,110.8 c 19.8,-36.2 38,-73.1 54.5,-110.8"/><path id="path20" style="fill:#000000;fill-opacity:1;fill-rule:nonzero;stroke:none" d="m 13980.4,13979.2 c -0.2,0.4 -0.6,1 -0.8,1.6 v 0 l 0.8,-1.6"/><path id="path22" style="fill:#000000;fill-opacity:1;fill-rule:nonzero;stroke:none" d="m 14014.6,13909.9 c -29,43.4 -52.3,90.6 -69.2,140.2 l 69.2,-140.2"/><g transform="scale(1.56689)" id="g24"><path id="path26" style="fill:#000000;fill-opacity:1;fill-rule:nonzero;stroke:none" d="m 7513.63,13883 c 765.72,765.8 2007.23,765.8 2772.97,0 765.7,-765.7 765.7,-2007.2 0,-2772.9 -765.74,-765.8 -2007.25,-765.8 -2772.97,0 -765.73,765.7 -765.73,2007.2 0,2772.9 z m 71.22,-5644.56 684.48,-1089.3 c 292.11,-464.8 969.44,-464.8 1261.55,0 l 684.52,1089.3 c 481.6,766.42 989.2,1516.06 1513.5,2254.06 961.1,1353.4 835.2,3241.9 -377.9,4455 -1352.51,1352.5 -3549.29,1352.5 -4901.84,0 -1213.03,-1213.1 -1338.97,-3101.6 -377.8,-4454.9 524.2,-738.1 1031.84,-1487.67 1513.49,-2254.16"/></g><g transform="scale(1.31342)" id="g28"><path id="path30" style="fill:#000000;fill-opacity:1;fill-rule:nonzero;stroke:none" d="m 10003.6,6667.08 51.7,44.92 6244.7,2398.31 -77.5,314.3 c -105.2,426.97 -488.3,727.09 -928,727.09 h -2439 c -115.3,-178.22 -228,-355.01 -338.5,-530.96 l -816.7,-1299.51 c -235.4,-374.74 -640.1,-598.43 -1082.6,-598.43 -442.6,0 -847.35,223.69 -1082.77,598.43 l -816.64,1299.51 c -110.55,175.95 -223.24,352.74 -338.51,530.96 H 5940.84 c -439.8,0 -822.84,-300.12 -928.12,-727.09 l -5.74,-23.45 4023.85,-3574.55 c 565.09,487.04 966.18,834.76 972.77,840.47"/></g><g transform="scale(1.14214)" id="g32"><path id="path34" style="fill:#000000;fill-opacity:1;fill-rule:nonzero;stroke:none" d="M 12031.9,6937.53 C 11756.1,6698.51 10566.9,5669.12 9378.14,4654.09 9041.66,4366.74 8733.16,4104.42 8453.8,3868.11 H 16300 L 14960,8062.09 12031.9,6937.53"/></g><path id="path36" style="fill:#000000;fill-opacity:1;fill-rule:nonzero;stroke:none" d="M 11077.5,6978.5 6299.14,11223.4 5005.22,5973.8 C 4810.17,5182.4 5409.15,4417.9 6224.21,4417.9 h 1838.32 c 11.57,9.6 23.16,19.2 34.96,29.1 541.73,451.3 1256.01,1055.9 2123.01,1797.1 291.1,248.9 580.3,496.7 857,734.4"/><g transform="scale(1.41599)" id="g38"><path id="path40" style="fill:#000000;fill-opacity:1;fill-rule:nonzero;stroke:none" d="M 16162.3,4218.8 15293.8,7742.26 12743.2,6762.67 13907.1,3120 h 1394.3 c 575.6,0 998.6,539.9 860.9,1098.8"/></g></g></g></svg>