<?xml version="1.0" encoding="UTF-8" standalone="no"?>
<svg xmlns:dc="http://purl.org/dc/elements/1.1/" xmlns:cc="http://creativecommons.org/ns#" xmlns:rdf="http://www.w3.org/1999/02/22-rdf-syntax-ns#" xmlns:svg="http://www.w3.org/2000/svg" xmlns="http://www.w3.org/2000/svg" viewBox="1329.081161234206 1320.080611609595 2802.171116462186 2802.171116462186" height="2802" width="2802" xml:space="preserve" id="svg2" version="1.1"><metadata id="metadata8"><rdf:RDF><cc:Work rdf:about=""><dc:format>image/svg+xml</dc:format><dc:type rdf:resource="http://purl.org/dc/dcmitype/StillImage"/></cc:Work></rdf:RDF></metadata><defs id="defs6"/><g transform="matrix(1.3333333,0,0,-1.3333333,0,5461.3333)" id="g10"><g transform="scale(0.1)" id="g12"><g transform="scale(1.88979)" id="g14"><path id="path16" style="fill:#000000;fill-opacity:1;fill-rule:nonzero;stroke:none" d="m 11204.9,16283.8 c -248.7,-9.8 -554.1,-44.2 -676.2,-76.1 l -20.7,-5.4 3.5,-26.7 c 1.9,-14.8 11.8,-61.4 22.2,-104.3 10.3,-42.4 29.3,-131.2 42.1,-196.3 12.7,-65.1 24.4,-119.8 25.9,-121.1 1.4,-1.4 59.3,5.1 128.1,14.2 161.3,21.3 213.7,26.3 342.8,32.7 297.4,14.6 693.6,-2.3 936.7,-40 298.4,-46.2 663.2,-143.5 920.7,-245.6 406.4,-161.2 807.6,-388.6 1124.5,-637.4 384.7,-302.1 693.5,-625.2 935.9,-979.4 89.1,-130.2 202.1,-304.7 239.9,-370.5 51.5,-89.6 196.9,-381.5 236.4,-474.6 134.3,-316.8 218.6,-598 278,-927.6 75.6,-419.6 89.6,-876.6 37.8,-1236.1 -10.9,-75.7 -39.1,-235 -53.5,-301.7 l -2.9,-13.7 94.2,-3 c 127.5,-4 186.7,-15.8 305.3,-60.7 34.4,-13 62.9,-22.9 63.6,-22 8.3,11.7 40.4,196.3 53.2,306.3 23.5,202.2 33.3,621.3 19.4,825.5 -23.3,340.8 -74.1,677.7 -139.1,923.4 -101.9,385.2 -194.4,630.8 -371,984.2 -231,462.5 -529.8,880.7 -889.4,1245.2 -216.5,219.4 -377.1,359.2 -628.5,547.2 -185.2,138.6 -521.2,346.5 -725.4,448.9 -337.4,169 -595.3,264.3 -993.8,366.9 -428.1,110.3 -903.5,163.9 -1309.7,147.7"/></g><g transform="scale(1.83947)" id="g18"><path id="path20" style="fill:#000000;fill-opacity:1;fill-rule:nonzero;stroke:none" d="m 7258.08,16290.3 c -106.7,-24.3 -190.82,-73.9 -430.02,-253.8 -273.99,-206 -438.69,-369.1 -639.05,-632.6 -209.2,-275.1 -372.65,-602.9 -509.66,-1022 -57.75,-176.7 -80.53,-264.3 -104.11,-400.7 -35.2,-203.5 -30.32,-355.5 19.44,-605 33,-165.5 67.77,-282.7 166.14,-560 75.02,-211.5 117.88,-320.1 186.59,-473 21.51,-47.8 54.42,-122.4 73.15,-165.8 68.55,-158.7 209.03,-419.7 460.94,-856.2 75.46,-130.7 298.89,-464.3 460.73,-687.7 40.16,-55.4 100.81,-139.6 135.18,-187.5 84.93,-118.6 160.31,-220 226.14,-304.5 30.52,-39.1 74.33,-95.6 98.21,-126.6 70.3,-91.38 170.13,-216.64 239.58,-300.68 35.49,-42.94 78.58,-95.46 95.46,-116.34 74.36,-91.99 171.34,-202.23 440.48,-500.68 332.49,-368.71 884.58,-899.76 1330.91,-1280.19 212.17,-180.84 343.57,-287.88 570.81,-464.95 88.1,-68.63 182.4,-142.39 209.3,-163.6 194,-153.19 712.2,-502.71 1030.2,-694.91 419.7,-253.63 774,-437.5 1133.5,-588.28 121.2,-50.84 355.3,-142.94 434.9,-171.1 207.1,-73.29 486.1,-151.76 606.1,-170.46 88.4,-13.76 292,-16.61 402.3,-5.62 202.2,20.13 407.2,78.4 709.5,201.62 549.6,224.05 876,438.44 1211.1,795.45 81.3,86.6 136.4,153.3 231.8,280.51 168.3,224.52 222.1,325.82 240.5,452.85 11.8,81 -6.9,197.06 -44.6,276.17 -29.2,61.43 -63.1,104.31 -121,153.01 -67.4,56.69 -520.8,356.87 -754,499.23 -64.3,39.23 -195.2,120.26 -290.9,180.06 -95.6,59.8 -222.9,139.07 -282.7,176.14 -59.8,37.08 -156.9,98.6 -215.8,136.73 -58.8,38.07 -159.3,101.78 -222.9,141.34 -63.7,39.62 -208.7,129.8 -322.3,200.41 -265.3,164.87 -294.4,182.23 -337.1,201.59 -112,50.75 -262.6,58.89 -382.2,20.67 -114.1,-36.49 -167.9,-72.74 -245.2,-165.26 -66.4,-79.54 -298.3,-385.43 -401.8,-530.04 -165,-230.5 -210.2,-272.85 -335.3,-314.42 -120.1,-39.89 -231.1,-31.2 -380,29.77 -270.6,110.73 -692.6,366.22 -995.4,602.58 -99.5,77.66 -355.1,283.49 -405,326.17 -28.3,24.16 -67.7,57.65 -87,73.99 -456.7,385.69 -1078.42,1031.84 -1430.24,1486.34 -25.46,32.9 -72.89,94.1 -105.39,135.9 -109.34,140.8 -141.86,184.2 -223.95,299 -172.64,241.4 -294.86,436.8 -383.12,612.7 -63.85,127.2 -86.88,201.7 -90.4,292.5 -7.19,185.1 50.39,294.3 243.38,461.6 104.38,90.5 163.5,142.2 233.76,204.5 40.3,35.7 140.8,124.2 222.89,196.1 174.51,153 225.83,205.6 265.27,271.8 53.89,90.5 78.91,206.6 66.41,308.2 -14.35,116.8 -30.93,157.1 -134.54,327.3 -146.3,240.3 -245.03,401.5 -281.33,459.4 -21.57,34.4 -75.42,121.2 -119.67,193 -44.25,71.7 -112.38,181.7 -151.4,244.3 -39.1,62.8 -137.21,225.1 -218.55,361.5 -81.33,136.5 -165.42,275.7 -187.31,310.2 -59.81,94.2 -85.95,136.4 -178.09,288.1 -144.32,237.6 -210.32,334.2 -267.7,392 -57.67,58 -137.5,105.4 -228.83,135.8 -43.35,14.4 -58.98,16.7 -126.4,18.8 -54.9,1.8 -86.88,0.2 -111.71,-5.4"/></g><g transform="scale(1.73565)" id="g22"><path id="path24" style="fill:#000000;fill-opacity:1;fill-rule:nonzero;stroke:none" d="m 12277.8,16295.6 c -194.7,-13.7 -352.5,-34.4 -544.4,-71.6 -83.6,-16.2 -83.6,-16.2 -76.6,-49.6 3.1,-15.3 20.7,-80.7 39.1,-145.8 18.5,-65.1 44.3,-158.2 57.6,-207.4 13.3,-49 25,-90.1 26,-91 0.9,-1 17.3,2.3 36.8,7.3 48.6,12.6 197.7,35.5 308.9,47.4 135.4,14.6 582.8,14.6 694.2,0.1 267.9,-34.8 435.7,-74.2 681,-160 305.4,-106.8 445.2,-175.8 727.7,-359.1 229.9,-149.1 363.7,-253.6 512.2,-400.3 437.8,-432.2 744.7,-915.8 903,-1422.8 160.7,-514.4 195.8,-967.9 116.8,-1507.8 -8,-54.1 -19,-117.9 -24.7,-142.6 l -10.4,-44.6 h 32.2 c 54.3,0 173.5,-16.4 229.4,-31.5 61,-16.5 110.6,-36.2 161.3,-64.3 l 36.3,-20 6.1,16.1 c 12.5,32.8 52.4,231.6 65.7,327.3 24.4,176.1 28.9,252.9 28.4,486.8 -0.4,231.1 -6.5,327.6 -31.7,504.2 -27.5,192.4 -88.8,450.3 -152.3,640.6 -44.7,134.3 -144.2,382.6 -198.6,495.5 -140,291 -356.6,611.1 -590,871.8 -340.9,380.7 -607.2,602 -1005.3,835.2 -137.7,80.6 -348,178.6 -559.5,260.5 -352.6,136.8 -663.7,199.1 -1114.8,223.4 -100.3,5.4 -291.5,6.6 -354.4,2.2"/></g><g transform="scale(1.59891)" id="g26"><path id="path28" style="fill:#000000;fill-opacity:1;fill-rule:nonzero;stroke:none" d="m 13368.5,16272.7 c -71.9,-6 -234.5,-27.5 -284,-37.5 l -33.1,-6.7 4.1,-32.5 c 15.4,-120.1 70.5,-361.1 84.7,-369.9 3.1,-1.9 38.8,2.1 79.4,8.9 149.5,25.1 313.2,34.6 447.2,25.9 281.4,-18.1 436.2,-45.9 641.7,-115.2 155.8,-52.5 307.7,-123.6 470.3,-220.3 262,-155.8 490.6,-373.8 704.8,-672.2 184.9,-257.6 305,-536.6 357.8,-831.2 28.7,-160 34.5,-228.2 34.7,-409.6 0.3,-183.9 -8.2,-270.6 -40.7,-417.8 -13.9,-63.2 -12.7,-67 27.3,-82 14.5,-5.5 68.1,-25.1 120.1,-44 110.7,-40.1 152.6,-58.2 196.3,-84.9 18.2,-11.1 33.7,-18.8 35.1,-17.4 11.1,11 53,225.2 65.1,333.4 12.2,108.2 20.7,319.8 16.7,412.8 -11.4,262.9 -63.2,519.7 -160.3,794.9 -36,101.9 -65.1,168.8 -122,280.8 -168.1,330.8 -389.8,614.1 -674.5,861.9 -136.6,118.8 -304,228.5 -513.5,336.4 -398.6,205.4 -789.3,295.6 -1265.2,292.3 -71.3,-0.4 -157.6,-3.2 -192,-6.1"/></g></g></g></svg>