<?xml version="1.0" encoding="UTF-8" standalone="no"?>
<svg
   xmlns:dc="http://purl.org/dc/elements/1.1/"
   xmlns:cc="http://creativecommons.org/ns#"
   xmlns:rdf="http://www.w3.org/1999/02/22-rdf-syntax-ns#"
   xmlns:svg="http://www.w3.org/2000/svg"
   xmlns="http://www.w3.org/2000/svg"
   viewBox="0 0 5333.3335 5333.3335"
   height="5333.3335"
   width="5333.3335"
   xml:space="preserve"
   id="svg2"
   version="1.1"><metadata
     id="metadata8"><rdf:RDF><cc:Work
         rdf:about=""><dc:format>image/svg+xml</dc:format><dc:type
           rdf:resource="http://purl.org/dc/dcmitype/StillImage" /></cc:Work></rdf:RDF></metadata><defs
     id="defs6" /><g
     transform="matrix(1.3333333,0,0,-1.3333333,0,5333.3333)"
     id="g10"><g
       transform="scale(0.1)"
       id="g12"><g
         transform="scale(2.45399)"
         id="g14"><path
           id="path16"
           style="fill:#ffffff;fill-opacity:0;fill-rule:nonzero;stroke:none"
           d="M 16300,0 H 0 V 16300 H 16300 V 0" /></g><g
         transform="scale(2.21958)"
         id="g18"><path
           id="path20"
           style="fill:#000000;fill-opacity:1;fill-rule:nonzero;stroke:none"
           d="M 15520.1,9009.24 V 5904.69 c 0,0 -998,250.99 -998,-997.99 H 9012.21 3499.33 c 0,1248.98 -998,997.99 -998,997.99 v 3104.55 3104.56 c 0,0 998,-251 998,998 h 5512.88 5509.89 c 0,-1249 998,-998 998,-998 z M 1721.46,13697.4 V 4324.02 H 16300 V 13697.4 H 1721.46" /></g><g
         transform="scale(1.5881)"
         id="g22"><path
           id="path24"
           style="fill:#000000;fill-opacity:;fill-rule:nonzero;stroke:none"
           d="m 12595.8,16295.8 c 2045.7,0 3704.2,-1658.4 3704.2,-3704.2 0,-2045.8 -1658.5,-3704.24 -3704.2,-3704.24 -2045.8,0 -3704.28,1658.44 -3704.28,3704.24 0,2045.8 1658.48,3704.2 3704.28,3704.2" /></g><g
         transform="scale(1.42331)"
         id="g26"><path
           id="path28"
           style="fill:#ffffff;fill-opacity:;fill-rule:nonzero;stroke:none"
           d="m 15643,14934.7 v 42 c 0,279.5 -51.3,517.2 -158.4,717.5 -107.2,195.8 -261,349.5 -461.3,452 -205.1,102.6 -447.4,153.8 -731.6,153.8 -284.2,0 -531.2,-51.2 -731.6,-153.8 -205,-102.5 -358.8,-251.6 -461.3,-447.3 -107.1,-195.7 -158.4,-433.3 -158.4,-712.9 v -1025.1 h -410.1 v -475.3 h 410.1 v -554.5 c 0,-177.1 -37.3,-312.2 -116.5,-400.8 -74.6,-88.5 -191,-135.1 -340.1,-135.1 h -23.4 v -591.8 h 3187.2 v 591.8 h -2329.8 c 163.1,121.2 247,298.2 247,531.2 v 559.2 h 1328 v 470.6 h -1328 v 1025.1 c 0,228.4 65.2,405.4 191.1,531.2 125.7,125.8 307.5,191.1 540.5,191.1 228.3,0 410,-65.3 535.8,-191.1 130.5,-125.8 191.1,-307.5 191.1,-535.8 v -42 h 619.7" /></g></g></g></svg>